# xmcd
#
# Track frame offsets:
#   150
#   13201
#   30505
#   45392
#   61714
#   75131
#   93085
#   109342
#   126122
#   147188
#   162347
#   176601
#   194070
#
# Disc length: 2864 seconds
#
# Revision: 0
# Processed by: cddbd v1.5.2PL0 Copyright (c) Steve Scherf et al.
# Submitted via: GXTranscoder 2.0.1939
#
DISCID=9f0b2e0d
DTITLE=Colbie - Colbie
DYEAR=1900
DGENRE=Pop
TTITLE0=magic
TTITLE1=the little things
TTITLE2=bubbly
TTITLE3=older
TTITLE4=feelings show
TTITLE5=battle
TTITLE6=one fine wire
TTITLE7=realize
TTITLE8=dreams collide
TTITLE9=paint it golden
TTITLE10=tied down
TTITLE11=droplets
TTITLE12=anything at all
EXTD=
EXTT0=
EXTT1=
EXTT2=
EXTT3=
EXTT4=
EXTT5=
EXTT6=
EXTT7=
EXTT8=
EXTT9=
EXTT10=
EXTT11=
EXTT12=
PLAYORDER=
